<?xml version="1.0" standalone="no"?>
<!DOCTYPE svg PUBLIC "-//W3C//DTD SVG 20010904//EN"
 "http://www.w3.org/TR/2001/REC-SVG-20010904/DTD/svg10.dtd">
<svg version="1.0" xmlns="http://www.w3.org/2000/svg"
 width="765.000000pt" height="433.000000pt" viewBox="0 0 765.000000 433.000000"
 preserveAspectRatio="xMidYMid meet">

<g transform="translate(0.000000,433.000000) scale(0.100000,-0.100000)"
fill="#000000" stroke="none">
<path d="M3021 3901 c-41 -7 -48 -21 -24 -50 13 -15 51 -32 118 -51 115 -33
294 -96 378 -134 99 -45 545 -303 621 -361 130 -97 364 -352 413 -448 14 -29
39 -72 56 -96 28 -41 31 -43 44 -26 22 32 15 63 -45 189 -61 126 -130 219
-286 384 -115 122 -270 228 -566 387 -261 140 -352 173 -567 204 -77 12 -89
12 -142 2z"/>
<path d="M4446 3903 c-3 -4 -6 -19 -6 -35 0 -21 14 -46 50 -86 27 -31 69 -82
93 -112 49 -63 64 -69 98 -41 l24 20 -25 47 c-50 96 -129 176 -201 203 -15 5
-30 7 -33 4z"/>
<path d="M3896 3882 c-3 -6 -3 -17 0 -26 7 -18 64 -63 97 -75 25 -10 274 -197
403 -303 72 -59 119 -110 188 -205 40 -56 62 -65 90 -34 16 18 16 21 1 51 -42
81 -94 151 -164 220 -91 90 -377 307 -456 345 -60 30 -148 44 -159 27z"/>
<path d="M2948 3588 c-16 -5 -28 -14 -28 -19 0 -15 43 -37 85 -44 65 -12 221
-73 356 -141 336 -168 558 -337 782 -594 205 -236 285 -352 422 -614 33 -64
58 -87 75 -70 26 26 -119 356 -227 512 -158 230 -442 533 -613 654 -177 126
-464 258 -673 309 -85 21 -137 23 -179 7z"/>
<path d="M2950 3161 c-18 -5 -25 -14 -25 -31 0 -22 8 -27 60 -43 126 -38 467
-201 590 -281 83 -54 145 -104 300 -239 155 -136 205 -188 287 -304 44 -61 88
-119 99 -129 18 -16 19 -16 19 9 0 53 -155 309 -249 412 -85 93 -281 261 -419
358 -93 65 -260 157 -287 157 -7 0 -41 13 -76 29 -97 43 -251 75 -299 62z"/>
<path d="M2948 2759 c-35 -20 -18 -34 65 -53 145 -32 239 -66 364 -132 199
-105 331 -215 388 -322 43 -82 71 -119 81 -109 18 18 3 79 -39 163 -48 96
-114 168 -234 256 -176 129 -543 245 -625 197z"/>
<path d="M2962 2452 c-22 -14 16 -38 123 -77 158 -57 197 -92 250 -221 44
-108 69 -69 30 46 -43 127 -121 190 -296 239 -84 23 -89 24 -107 13z"/>
<path d="M1830 1778 c-10 -24 -25 -60 -34 -80 l-15 -38 -63 0 c-71 0 -92 -9
-86 -36 3 -16 14 -20 61 -22 62 -3 62 -4 46 -51 -11 -30 -13 -31 -71 -31 -64
0 -98 -12 -98 -35 0 -21 33 -35 84 -35 l46 0 -25 -56 c-29 -65 -31 -92 -9
-101 21 -8 36 11 68 90 l28 67 58 0 59 0 -25 -60 c-28 -70 -30 -88 -8 -97 22
-8 36 11 69 90 l28 67 49 0 c55 0 88 13 88 35 0 19 -18 29 -66 35 l-42 5 15
38 c15 37 16 37 73 37 39 0 62 5 70 15 20 25 -5 45 -56 45 -24 0 -44 2 -44 5
0 3 11 33 25 67 28 69 26 91 -7 86 -17 -2 -29 -20 -54 -78 l-31 -75 -56 -3
c-32 -2 -57 0 -57 3 0 3 11 33 24 66 27 65 25 89 -6 89 -13 0 -25 -13 -38 -42z
m100 -187 c0 -4 -5 -22 -11 -40 -11 -30 -13 -31 -70 -31 l-59 0 15 36 c8 20
15 38 15 40 0 2 25 4 55 4 30 0 55 -4 55 -9z"/>
<path d="M2203 1813 c-10 -3 -13 -65 -13 -259 0 -218 2 -255 15 -260 8 -4 22
-1 30 6 12 10 15 45 16 184 l1 171 86 -177 c48 -97 93 -180 101 -183 23 -9 34
9 125 190 l85 170 0 -171 c1 -139 4 -174 16 -184 8 -7 22 -10 30 -6 13 5 15
42 15 260 0 225 -2 255 -16 260 -9 4 -22 2 -28 -3 -6 -5 -56 -100 -111 -210
-55 -111 -102 -201 -105 -201 -3 0 -52 93 -110 207 -58 114 -109 208 -115 209
-5 1 -16 0 -22 -3z"/>
<path d="M3371 1778 c-10 -24 -24 -60 -32 -80 l-13 -38 -67 0 c-47 0 -70 -4
-79 -15 -24 -28 -4 -44 58 -47 l60 -3 -15 -37 c-15 -37 -16 -38 -68 -38 -64 0
-105 -14 -105 -35 0 -20 40 -35 91 -35 l39 0 -22 -52 c-30 -76 -33 -97 -14
-104 25 -10 42 11 72 87 l27 69 58 0 59 0 -22 -52 c-30 -77 -33 -94 -13 -102
26 -10 41 8 71 85 l27 69 49 0 c55 0 88 13 88 35 0 20 -32 35 -74 35 l-34 0
15 40 16 40 64 0 c48 0 65 4 69 15 10 26 -16 45 -62 45 l-44 0 22 53 c30 73
30 102 -1 102 -20 0 -28 -11 -54 -77 l-30 -78 -58 0 -59 0 22 53 c29 71 29
101 0 105 -18 3 -26 -5 -41 -40z m109 -182 c0 -2 -7 -20 -15 -40 -15 -36 -16
-36 -74 -36 l-59 0 15 40 16 40 59 0 c32 0 58 -2 58 -4z"/>
<path d="M3742 1808 c-17 -17 -17 -489 0 -506 8 -8 49 -12 119 -12 97 0 111 2
160 28 130 67 177 241 102 373 -33 59 -92 106 -149 119 -58 14 -218 12 -232
-2z m241 -62 c66 -27 117 -111 117 -192 0 -68 -45 -149 -104 -185 -24 -15 -50
-19 -118 -19 l-88 0 0 205 0 205 80 0 c45 0 95 -6 113 -14z"/>
<path d="M4823 1808 c-4 -7 -20 -42 -34 -78 l-27 -65 -73 -5 c-71 -5 -74 -6
-74 -30 0 -23 4 -25 58 -28 31 -2 57 -5 57 -8 0 -2 -7 -20 -14 -39 -14 -34
-17 -35 -68 -35 -72 0 -98 -9 -98 -31 0 -24 30 -39 79 -39 23 0 41 -2 41 -5 0
-3 -11 -33 -25 -67 -19 -47 -22 -64 -13 -75 22 -27 42 -8 74 67 l31 75 56 3
c32 2 57 -1 57 -7 0 -5 -9 -31 -20 -57 -25 -57 -23 -89 5 -89 15 0 27 18 51
75 l31 75 62 6 c62 6 84 19 74 45 -5 14 -36 24 -75 24 -33 0 -32 -2 -13 43 15
35 16 36 77 39 52 2 63 6 66 22 5 24 -14 36 -60 36 -21 0 -38 4 -38 9 0 5 9
30 20 56 26 61 26 95 1 95 -24 0 -29 -7 -62 -90 l-27 -65 -57 -3 c-65 -3 -63
-8 -29 79 9 25 14 54 11 63 -8 19 -32 21 -44 4z m87 -215 c0 -4 -5 -22 -12
-40 -12 -32 -13 -33 -70 -33 -32 0 -58 2 -58 4 0 2 7 20 15 40 15 35 17 36 70
36 30 0 55 -3 55 -7z"/>
<path d="M5182 1812 c-9 -7 -12 -66 -10 -263 3 -246 4 -254 23 -254 19 0 20 8
23 178 1 97 6 177 10 177 4 0 46 -82 94 -181 70 -144 91 -180 105 -177 12 2
48 64 110 188 l92 185 0 -183 c1 -153 3 -184 16 -188 8 -4 22 -1 30 6 13 10
15 53 15 255 0 252 -4 274 -42 260 -9 -4 -62 -102 -118 -218 l-103 -212 -106
215 c-58 118 -110 216 -116 217 -5 2 -16 -1 -23 -5z"/>
<path d="M2937 1630 c-87 -15 -141 -78 -141 -164 0 -147 172 -231 275 -135 30
28 31 31 16 46 -15 16 -19 15 -56 -5 -48 -27 -84 -28 -127 -1 -65 40 -68 131
-6 179 33 26 95 26 137 0 30 -19 35 -19 49 -5 8 9 13 22 10 30 -14 36 -97 65
-157 55z"/>
<path d="M4367 1629 c-76 -13 -128 -72 -135 -153 -8 -94 50 -167 146 -182 75
-12 165 38 148 82 -8 20 -33 17 -63 -6 -16 -12 -41 -20 -65 -20 -55 0 -108 51
-108 104 0 44 22 91 49 106 32 16 97 12 134 -10 30 -18 36 -19 47 -5 36 44
-64 100 -153 84z"/>
<path d="M5807 1633 c-4 -3 -7 -80 -7 -170 0 -137 2 -165 15 -169 35 -14 45
14 45 125 0 125 11 151 64 151 56 0 66 -21 66 -147 0 -86 3 -113 15 -123 12
-10 18 -10 30 0 22 19 21 231 -1 270 -27 45 -68 63 -130 57 -31 -3 -54 -2 -54
4 0 10 -33 12 -43 2z"/>
<path d="M3943 1141 c-162 -74 -63 -313 108 -262 46 14 87 64 96 114 9 55 -27
121 -81 146 -52 26 -69 26 -123 2z m123 -39 c73 -58 53 -166 -35 -193 -103
-31 -179 104 -102 182 24 23 38 29 73 29 26 0 52 -7 64 -18z"/>
<path d="M2070 1009 l0 -142 63 5 c104 9 154 47 163 125 6 48 -20 100 -65 130
-26 18 -48 23 -97 23 l-64 0 0 -141z m153 81 c32 -25 46 -66 36 -106 -13 -47
-42 -67 -104 -72 l-55 -4 0 101 0 101 49 0 c33 0 56 -6 74 -20z"/>
<path d="M2470 1010 l0 -140 85 0 c78 0 85 2 85 20 0 18 -7 20 -70 20 l-70 0
0 55 0 55 60 0 c47 0 60 3 60 15 0 12 -13 15 -60 15 l-60 0 0 30 0 30 70 0
c63 0 70 2 70 20 0 18 -7 20 -85 20 l-85 0 0 -140z"/>
<path d="M2800 1144 c0 -4 23 -68 51 -141 39 -99 56 -133 69 -133 13 0 30 34
69 135 28 74 51 137 51 140 0 3 -8 5 -17 5 -13 0 -27 -24 -52 -93 -54 -146
-48 -145 -95 -21 -28 73 -48 110 -59 112 -9 2 -17 0 -17 -4z"/>
<path d="M3200 1010 l0 -140 85 0 c78 0 85 2 85 20 0 18 -7 20 -65 20 l-65 0
0 55 0 55 60 0 c47 0 60 3 60 15 0 12 -13 15 -60 15 -60 0 -60 0 -60 30 0 29
0 29 67 32 55 2 68 6 71 21 3 15 -6 17 -87 17 l-91 0 0 -140z"/>
<path d="M3550 1010 l0 -140 90 0 c83 0 90 1 90 20 0 18 -7 20 -75 20 l-75 0
0 120 c0 100 -2 120 -15 120 -13 0 -15 -22 -15 -140z"/>
<path d="M4320 1010 c0 -118 2 -140 15 -140 12 0 15 15 15 75 l0 75 45 0 c76
0 107 50 64 104 -18 23 -28 26 -80 26 l-59 0 0 -140z m115 70 c0 -22 -5 -25
-42 -28 -42 -3 -43 -2 -43 28 0 30 1 31 43 28 37 -3 42 -6 42 -28z"/>
<path d="M4650 1010 l0 -140 85 0 c78 0 85 2 85 20 0 18 -7 20 -65 20 l-65 0
0 55 0 55 60 0 c47 0 60 3 60 15 0 12 -13 15 -60 15 -60 0 -60 0 -60 30 0 29
0 29 67 32 55 2 68 6 71 21 3 15 -6 17 -87 17 l-91 0 0 -140z"/>
<path d="M5000 1010 c0 -118 2 -140 15 -140 12 0 15 15 15 75 0 68 2 75 19 75
13 0 38 -26 73 -75 31 -43 60 -75 71 -75 9 0 17 2 17 5 0 3 -22 36 -49 73
l-50 67 25 26 c29 31 30 48 3 83 -18 23 -28 26 -80 26 l-59 0 0 -140z m120 76
c0 -26 -16 -36 -61 -36 -26 0 -29 4 -29 30 0 29 2 30 45 30 41 0 45 -2 45 -24z"/>
<path d="M5385 1125 c-55 -54 -21 -111 76 -129 49 -9 66 -29 51 -61 -9 -20
-19 -25 -47 -25 -20 0 -49 7 -64 15 -26 13 -30 13 -41 0 -10 -12 -5 -18 31
-35 53 -24 81 -25 119 -5 34 17 47 55 34 94 -7 21 -22 30 -73 46 -75 25 -95
49 -61 77 27 22 46 23 84 3 35 -18 33 -18 40 0 7 20 -42 45 -89 45 -25 0 -43
-8 -60 -25z"/>
</g>
</svg>
